# xmcd CD database file
#
# Track frame offsets:
#	150
#	15565
#	35867
#	52822
#	66660
#	81830
#	96115
#	111405
#	125785
#	142765
#	156025
#	173137
#	190417
#	205705
#
# Disc length: 2944 seconds
#
# Revision: 0
# Processed by: cddbd v1.4PL0 Copyright (c) Steve Scherf et al.
# Submitted via: Feurio! 1.65 - http://www.feurio.com
#
DISCID=c40b7e0e
DTITLE=Gunter Gabriel - Strassenhund
DYEAR=1900
DGENRE=Country
TTITLE0=Truck Stop, Tom Astor und ich
TTITLE1=Ich bin ein Strassenhund
TTITLE2=Liebst Du 'nen arbeitslosen Star?
TTITLE3=Der letzte Wagen ist immer ein Kombi
TTITLE4=Laﬂ mich Dein Freund sein heut nacht
TTITLE5=Flensburg (Gib mir meine Pappe wieder)
TTITLE6=Harry und Oskar (Zwei Kerle wie'n Brautpaar)
TTITLE7=Den Rocker kriegst Du nicht mehr aus mir raus
TTITLE8=Wir sind die an denen alles h‰ngen bleibt
TTITLE9=Einfache Fakten
TTITLE10=Sechs Tage auf'm Bock (Six Days On The Road)
TTITLE11=Du bist das Gold in meinem Leben
TTITLE12=Ich werd' gesucht in Bremerhaven
TTITLE13=Willkommen im deutschen Wunderland (Welcome To The USA Today)
EXTD=
EXTT0=
EXTT1=
EXTT2=
EXTT3=
EXTT4=
EXTT5=
EXTT6=
EXTT7=
EXTT8=
EXTT9=
EXTT10=
EXTT11=
EXTT12=
EXTT13=
PLAYORDER=
